<svg xmlns="http://www.w3.org/2000/svg" version="1.1" xmlns:xlink="http://www.w3.org/1999/xlink" width="200" height="200"><svg xmlns="http://www.w3.org/2000/svg" version="1.1" xmlns:xlink="http://www.w3.org/1999/xlink" viewBox="0 0 200 200"><rect width="200" height="200" fill="url('#gradient')"></rect><defs><linearGradient id="SvgjsLinearGradient1005" gradientTransform="rotate(45 0.5 0.5)"><stop offset="0%" stop-color="#ffffff"></stop><stop offset="100%" stop-color="#b5c2e6"></stop></linearGradient></defs><g><g fill="#3c4b6d" transform="matrix(3.2559618441971385,0,0,3.2559618441971385,6.504234180351887,124.09646161220411)" stroke="#ffffff" stroke-width="0.2"><path d="M8.94 0L5.91-5.29L4.50-3.75L4.50 0L1.07 0L1.07-14.22L4.50-14.22L4.50-7.95L5.69-9.76L8.76-14.22L13.00-14.22L8.19-7.93L13.00 0L8.94 0ZM16.93-15L16.93-9.43Q17.99-10.76 19.63-10.76L19.63-10.76Q21.38-10.76 22.27-9.73Q23.15-8.69 23.17-6.67L23.17-6.67L23.17 0L19.87 0L19.87-6.59Q19.87-7.43 19.53-7.83Q19.19-8.22 18.37-8.22L18.37-8.22Q17.35-8.22 16.93-7.58L16.93-7.58L16.93 0L13.64 0L13.64-15L16.93-15ZM34.25 0L30.96 0Q30.78-0.32 30.64-0.95L30.64-0.95Q29.74 0.20 28.11 0.20L28.11 0.20Q26.61 0.20 25.57-0.71Q24.52-1.61 24.52-2.98L24.52-2.98Q24.52-4.70 25.79-5.58Q27.06-6.46 29.48-6.46L29.48-6.46L30.50-6.46L30.50-7.01Q30.50-8.47 29.24-8.47L29.24-8.47Q28.07-8.47 28.07-7.31L28.07-7.31L24.78-7.31Q24.78-8.85 26.08-9.80Q27.38-10.76 29.40-10.76Q31.43-10.76 32.60-9.78Q33.77-8.79 33.80-7.07L33.80-7.07L33.80-2.39Q33.82-0.94 34.25-0.17L34.25-0.17L34.25 0ZM28.90-2.15L28.90-2.15Q29.51-2.15 29.92-2.41Q30.32-2.68 30.50-3.01L30.50-3.01L30.50-4.70L29.54-4.70Q27.82-4.70 27.82-3.15L27.82-3.15Q27.82-2.71 28.13-2.43Q28.43-2.15 28.90-2.15ZM35.56-10.57L38.64-10.57L38.75-9.33Q39.84-10.76 41.77-10.76L41.77-10.76Q43.42-10.76 44.23-9.78Q45.05-8.79 45.08-6.81L45.08-6.81L45.08 0L41.78 0L41.78-6.67Q41.78-7.47 41.46-7.85Q41.13-8.22 40.28-8.22L40.28-8.22Q39.32-8.22 38.85-7.46L38.85-7.46L38.85 0L35.56 0L35.56-10.57ZM50.12-15L50.12-9.43Q51.17-10.76 52.81-10.76L52.81-10.76Q54.56-10.76 55.45-9.73Q56.34-8.69 56.36-6.67L56.36-6.67L56.36 0L53.06 0L53.06-6.59Q53.06-7.43 52.71-7.83Q52.37-8.22 51.55-8.22L51.55-8.22Q50.54-8.22 50.12-7.58L50.12-7.58L50.12 0L46.83 0L46.83-15L50.12-15Z"></path></g></g></svg><style>@media (prefers-color-scheme: light) { :root { filter: none; } }
@media (prefers-color-scheme: dark) { :root { filter: none; } }
</style></svg>